<svg xmlns="http://www.w3.org/2000/svg" version="1.1" xmlns:xlink="http://www.w3.org/1999/xlink" viewBox="0 0 18.261159826061107 6.091074921978514"><g transform="matrix(0.7500928594846338,0,0,0.7500928594846338,3.042898675520761,2.3193163067577216)"><rect width="20.290512721731076" height="20.290512721731076" x="-2.029352895669968" y="-9.177081360865538" fill="#ffffff"></rect><g transform="matrix(1,0,0,1,0,0)" clip-path="url(#SvgjsClipPath53635)"><g clip-path="url(#SvgjsClipPath536300ea2f368-5c7e-4ad3-985e-de0994555d4b)"><path d=" M 14.170517723008068 0.5824566042781281 L 13.140756925787914 1.177637133716067 L 12.109986064029039 0.5824566042781281 L 12.109986064029039 0.12792756185628318 L 14.171275271412108 -1.061928464750236 L 16.23256447879517 0.12792756185628318 L 16.23256447879517 0.5824566042781281 L 15.201793617036303 1.177637133716067 L 14.171275271412108 0.5824566042781281 Z M 12.50391123412797 0.35519208306720573 L 13.14025189351855 0.722603059024864 L 14.170770239142747 0.12742252958692557 L 15.201288584766942 0.722603059024864 L 15.837629244157528 0.35519208306720573 L 14.17102275527743 -0.607146906193712 Z" fill="#202020" transform="matrix(1,0,0,1,0,0)" fill-rule="evenodd"></path></g><g clip-path="url(#SvgjsClipPath536300ea2f368-5c7e-4ad3-985e-de0994555d4b)"><path d=" M 14.170517723008068 1.49328230206457 L 13.139746861249195 2.0884628315025084 L 12.109228515625 1.49328230206457 L 12.109228515625 1.0379957112386888 L 13.139746861249195 1.6331762406766273 L 14.170517723008068 1.0379957112386888 L 15.201036068632263 1.6331762406766273 L 16.231806930391137 1.0379957112386888 L 16.231806930391137 1.49328230206457 L 15.201036068632263 2.0884628315025084 L 14.170517723008068 1.49328230206457 Z" fill="#1192dc" transform="matrix(1,0,0,1,0,0)" fill-rule="evenodd"></path></g><g clip-path="url(#SvgjsClipPath536300ea2f368-5c7e-4ad3-985e-de0994555d4b)"><path d=" M 14.170517723008068 2.4038554837163333 L 13.139746861249195 2.9990360131542726 L 12.109228515625 2.4038554837163333 L 12.109228515625 1.948568892890452 L 13.139746861249195 2.543749422328391 L 14.170517723008068 1.948568892890452 L 15.201036068632263 2.543749422328391 L 16.231806930391137 1.948568892890452 L 16.231806930391137 2.4038554837163333 L 15.201036068632263 2.9990360131542726 L 14.170517723008068 2.4038554837163333 Z" fill="#1192dc" transform="matrix(1,0,0,1,0,0)" fill-rule="evenodd"></path></g></g><g><path d=" M 0.183 0.00749999999999984 L 0.2595 0.00749999999999984 L 0.2595 0.9884999999999999 L 0.864 0.9884999999999999 L 0.864 1.0574999999999999 L 0.183 1.0574999999999999 L 0.183 0.00749999999999984 M 1.2060673828125 0.9952499999999999 Q 1.0815673828125 0.9254999999999999 1.0103173828125 0.8039999999999998 Q 0.9390673828125 0.6824999999999999 0.9390673828125 0.5324999999999999 Q 0.9390673828125 0.38249999999999984 1.0103173828125 0.2609999999999999 Q 1.0815673828125 0.13949999999999985 1.2060673828125 0.06974999999999987 Q 1.3305673828125 -2.220446049250313e-16 1.4850673828125 -2.220446049250313e-16 Q 1.6395673828125 -2.220446049250313e-16 1.7640673828125 0.06899999999999984 Q 1.8885673828125 0.1379999999999999 1.9598173828125 0.25949999999999984 Q 2.0310673828125 0.3809999999999999 2.0310673828125 0.5324999999999999 Q 2.0310673828125 0.6839999999999999 1.9598173828125 0.8054999999999999 Q 1.8885673828125 0.9269999999999998 1.7640673828125 0.9959999999999999 Q 1.6395673828125 1.065 1.4850673828125 1.065 Q 1.3305673828125 1.065 1.2060673828125 0.9952499999999999 M 1.7235673828125 0.9344999999999999 Q 1.8300673828125 0.8744999999999998 1.8915673828125 0.7687499999999998 Q 1.9530673828125 0.6629999999999998 1.9530673828125 0.5324999999999999 Q 1.9530673828125 0.4019999999999999 1.8915673828125 0.2962499999999999 Q 1.8300673828125 0.1904999999999999 1.7235673828125 0.13049999999999984 Q 1.6170673828125 0.0704999999999999 1.4850673828125 0.0704999999999999 Q 1.3530673828125 0.0704999999999999 1.2458173828125 0.13049999999999984 Q 1.1385673828125 0.1904999999999999 1.0770673828125 0.2962499999999999 Q 1.0155673828125 0.4019999999999999 1.0155673828125 0.5324999999999999 Q 1.0155673828125 0.6629999999999998 1.0770673828125 0.7687499999999998 Q 1.1385673828125 0.8744999999999998 1.2458173828125 0.9344999999999999 Q 1.3530673828125 0.9944999999999999 1.4850673828125 0.9944999999999999 Q 1.6170673828125 0.9944999999999999 1.7235673828125 0.9344999999999999 M 3.04658642578125 0.5369999999999999 L 3.12008642578125 0.5369999999999999 L 3.12008642578125 0.9299999999999999 Q 3.05108642578125 0.9959999999999999 2.95283642578125 1.0305 Q 2.85458642578125 1.065 2.74508642578125 1.065 Q 2.5890864257812503 1.065 2.46383642578125 0.9959999999999999 Q 2.33858642578125 0.9269999999999998 2.26733642578125 0.8054999999999999 Q 2.19608642578125 0.6839999999999999 2.19608642578125 0.5324999999999999 Q 2.19608642578125 0.3809999999999999 2.26733642578125 0.25949999999999984 Q 2.33858642578125 0.1379999999999999 2.46383642578125 0.06899999999999984 Q 2.5890864257812503 -2.220446049250313e-16 2.74658642578125 -2.220446049250313e-16 Q 2.86208642578125 -2.220446049250313e-16 2.95883642578125 0.03674999999999984 Q 3.05558642578125 0.0734999999999999 3.12458642578125 0.1439999999999999 L 3.07658642578125 0.19499999999999984 Q 3.0105864257812502 0.1289999999999999 2.92883642578125 0.0997499999999999 Q 2.8470864257812503 0.0704999999999999 2.74808642578125 0.0704999999999999 Q 2.61308642578125 0.0704999999999999 2.50433642578125 0.13049999999999984 Q 2.39558642578125 0.1904999999999999 2.33408642578125 0.2962499999999999 Q 2.27258642578125 0.4019999999999999 2.27258642578125 0.5324999999999999 Q 2.27258642578125 0.6614999999999999 2.33483642578125 0.7672499999999999 Q 2.39708642578125 0.8729999999999999 2.50508642578125 0.9337499999999999 Q 2.61308642578125 0.9944999999999999 2.74808642578125 0.9944999999999999 Q 2.92808642578125 0.9944999999999999 3.04658642578125 0.8984999999999999 L 3.04658642578125 0.5369999999999999 M 3.622601806640625 0.9952499999999999 Q 3.498101806640625 0.9254999999999999 3.426851806640625 0.8039999999999998 Q 3.355601806640625 0.6824999999999999 3.355601806640625 0.5324999999999999 Q 3.355601806640625 0.38249999999999984 3.426851806640625 0.2609999999999999 Q 3.498101806640625 0.13949999999999985 3.622601806640625 0.06974999999999987 Q 3.747101806640625 -2.220446049250313e-16 3.901601806640625 -2.220446049250313e-16 Q 4.056101806640625 -2.220446049250313e-16 4.180601806640625 0.06899999999999984 Q 4.305101806640625 0.1379999999999999 4.376351806640625 0.25949999999999984 Q 4.447601806640625 0.3809999999999999 4.447601806640625 0.5324999999999999 Q 4.447601806640625 0.6839999999999999 4.376351806640625 0.8054999999999999 Q 4.305101806640625 0.9269999999999998 4.180601806640625 0.9959999999999999 Q 4.056101806640625 1.065 3.901601806640625 1.065 Q 3.747101806640625 1.065 3.622601806640625 0.9952499999999999 M 4.140101806640625 0.9344999999999999 Q 4.246601806640625 0.8744999999999998 4.308101806640625 0.7687499999999998 Q 4.369601806640625 0.6629999999999998 4.369601806640625 0.5324999999999999 Q 4.369601806640625 0.4019999999999999 4.308101806640625 0.2962499999999999 Q 4.246601806640625 0.1904999999999999 4.140101806640625 0.13049999999999984 Q 4.033601806640625 0.0704999999999999 3.901601806640625 0.0704999999999999 Q 3.769601806640625 0.0704999999999999 3.662351806640625 0.13049999999999984 Q 3.555101806640625 0.1904999999999999 3.493601806640625 0.2962499999999999 Q 3.432101806640625 0.4019999999999999 3.432101806640625 0.5324999999999999 Q 3.432101806640625 0.6629999999999998 3.493601806640625 0.7687499999999998 Q 3.555101806640625 0.8744999999999998 3.662351806640625 0.9344999999999999 Q 3.769601806640625 0.9944999999999999 3.901601806640625 0.9944999999999999 Q 4.033601806640625 0.9944999999999999 4.140101806640625 0.9344999999999999 M 4.769370849609375 1.0252499999999998 Q 4.665120849609375 0.9854999999999998 4.606620849609375 0.9224999999999999 L 4.641120849609375 0.8654999999999999 Q 4.696620849609375 0.9239999999999999 4.790370849609375 0.9607499999999999 Q 4.884120849609375 0.9974999999999998 4.987620849609375 0.9974999999999998 Q 5.137620849609375 0.9974999999999998 5.214120849609375 0.9404999999999999 Q 5.290620849609375 0.8834999999999998 5.290620849609375 0.7919999999999998 Q 5.290620849609375 0.7214999999999998 5.250120849609375 0.6794999999999999 Q 5.209620849609375 0.6375 5.149620849609375 0.6149999999999999 Q 5.089620849609375 0.5924999999999998 4.987620849609375 0.5684999999999999 Q 4.872120849609375 0.5399999999999999 4.802370849609375 0.5129999999999999 Q 4.732620849609375 0.4859999999999999 4.683870849609375 0.42974999999999985 Q 4.635120849609375 0.37349999999999983 4.635120849609375 0.2789999999999999 Q 4.635120849609375 0.2024999999999999 4.675620849609375 0.13874999999999982 Q 4.716120849609375 0.07499999999999984 4.7993708496093745 0.03749999999999987 Q 4.882620849609375 -2.220446049250313e-16 5.007120849609375 -2.220446049250313e-16 Q 5.094120849609375 -2.220446049250313e-16 5.178120849609375 0.025499999999999856 Q 5.262120849609375 0.050999999999999934 5.323620849609375 0.09449999999999992 L 5.295120849609375 0.15599999999999992 Q 5.232120849609375 0.11249999999999982 5.156370849609375 0.08999999999999986 Q 5.0806208496093745 0.0674999999999999 5.007120849609375 0.0674999999999999 Q 4.861620849609375 0.0674999999999999 4.786620849609375 0.1259999999999999 Q 4.711620849609375 0.1844999999999999 4.711620849609375 0.27749999999999986 Q 4.711620849609375 0.34799999999999986 4.752120849609375 0.3899999999999999 Q 4.792620849609375 0.43199999999999983 4.852620849609375 0.4544999999999999 Q 4.912620849609375 0.47699999999999987 5.016120849609375 0.5024999999999998 Q 5.131620849609375 0.5309999999999999 5.200620849609375 0.5579999999999998 Q 5.269620849609375 0.5849999999999999 5.318370849609375 0.6397499999999998 Q 5.367120849609375 0.6944999999999999 5.367120849609375 0.7874999999999999 Q 5.367120849609375 0.8639999999999999 5.325870849609375 0.9269999999999998 Q 5.284620849609375 0.9899999999999999 5.1991208496093755 1.0274999999999999 Q 5.113620849609375 1.065 4.989120849609375 1.065 Q 4.873620849609375 1.065 4.769370849609375 1.0252499999999998 M 6.06841259765625 1.0252499999999998 Q 5.96416259765625 0.9854999999999998 5.90566259765625 0.9224999999999999 L 5.94016259765625 0.8654999999999999 Q 5.99566259765625 0.9239999999999999 6.08941259765625 0.9607499999999999 Q 6.18316259765625 0.9974999999999998 6.28666259765625 0.9974999999999998 Q 6.43666259765625 0.9974999999999998 6.51316259765625 0.9404999999999999 Q 6.58966259765625 0.8834999999999998 6.58966259765625 0.7919999999999998 Q 6.58966259765625 0.7214999999999998 6.54916259765625 0.6794999999999999 Q 6.50866259765625 0.6375 6.44866259765625 0.6149999999999999 Q 6.38866259765625 0.5924999999999998 6.28666259765625 0.5684999999999999 Q 6.17116259765625 0.5399999999999999 6.10141259765625 0.5129999999999999 Q 6.03166259765625 0.4859999999999999 5.98291259765625 0.42974999999999985 Q 5.93416259765625 0.37349999999999983 5.93416259765625 0.2789999999999999 Q 5.93416259765625 0.2024999999999999 5.97466259765625 0.13874999999999982 Q 6.01516259765625 0.07499999999999984 6.0984125976562495 0.03749999999999987 Q 6.18166259765625 -2.220446049250313e-16 6.30616259765625 -2.220446049250313e-16 Q 6.39316259765625 -2.220446049250313e-16 6.47716259765625 0.025499999999999856 Q 6.56116259765625 0.050999999999999934 6.62266259765625 0.09449999999999992 L 6.59416259765625 0.15599999999999992 Q 6.53116259765625 0.11249999999999982 6.45541259765625 0.08999999999999986 Q 6.3796625976562495 0.0674999999999999 6.30616259765625 0.0674999999999999 Q 6.16066259765625 0.0674999999999999 6.08566259765625 0.1259999999999999 Q 6.01066259765625 0.1844999999999999 6.01066259765625 0.27749999999999986 Q 6.01066259765625 0.34799999999999986 6.05116259765625 0.3899999999999999 Q 6.09166259765625 0.43199999999999983 6.15166259765625 0.4544999999999999 Q 6.21166259765625 0.47699999999999987 6.31516259765625 0.5024999999999998 Q 6.43066259765625 0.5309999999999999 6.49966259765625 0.5579999999999998 Q 6.56866259765625 0.5849999999999999 6.61741259765625 0.6397499999999998 Q 6.66616259765625 0.6944999999999999 6.66616259765625 0.7874999999999999 Q 6.66616259765625 0.8639999999999999 6.62491259765625 0.9269999999999998 Q 6.58366259765625 0.9899999999999999 6.4981625976562505 1.0274999999999999 Q 6.41266259765625 1.065 6.28816259765625 1.065 Q 6.17266259765625 1.065 6.06841259765625 1.0252499999999998 M 7.78067578125 0.00749999999999984 L 7.78067578125 1.0574999999999999 L 7.70417578125 1.0574999999999999 L 7.70417578125 0.5579999999999998 L 7.00217578125 0.5579999999999998 L 7.00217578125 1.0574999999999999 L 6.92567578125 1.0574999999999999 L 6.92567578125 0.00749999999999984 L 7.00217578125 0.00749999999999984 L 7.00217578125 0.4904999999999998 L 7.70417578125 0.4904999999999998 L 7.70417578125 0.00749999999999984 L 7.78067578125 0.00749999999999984 M 8.871214599609376 0.9884999999999999 L 8.871214599609376 1.0574999999999999 L 8.146714599609375 1.0574999999999999 L 8.146714599609375 0.00749999999999984 L 8.848714599609375 0.00749999999999984 L 8.848714599609375 0.0764999999999999 L 8.223214599609374 0.0764999999999999 L 8.223214599609374 0.4904999999999998 L 8.782714599609376 0.4904999999999998 L 8.782714599609376 0.5579999999999998 L 8.223214599609374 0.5579999999999998 L 8.223214599609374 0.9884999999999999 L 8.871214599609376 0.9884999999999999 M 9.87472412109375 0.9884999999999999 L 9.87472412109375 1.0574999999999999 L 9.15022412109375 1.0574999999999999 L 9.15022412109375 0.00749999999999984 L 9.85222412109375 0.00749999999999984 L 9.85222412109375 0.0764999999999999 L 9.22672412109375 0.0764999999999999 L 9.22672412109375 0.4904999999999998 L 9.78622412109375 0.4904999999999998 L 9.78622412109375 0.5579999999999998 L 9.22672412109375 0.5579999999999998 L 9.22672412109375 0.9884999999999999 L 9.87472412109375 0.9884999999999999 M 10.354733642578125 0.0764999999999999 L 9.976733642578125 0.0764999999999999 L 9.976733642578125 0.00749999999999984 L 10.809233642578125 0.00749999999999984 L 10.809233642578125 0.0764999999999999 L 10.431233642578125 0.0764999999999999 L 10.431233642578125 1.0574999999999999 L 10.354733642578125 1.0574999999999999 L 10.354733642578125 0.0764999999999999 M 11.03496533203125 1.0252499999999998 Q 10.93071533203125 0.9854999999999998 10.87221533203125 0.9224999999999999 L 10.90671533203125 0.8654999999999999 Q 10.96221533203125 0.9239999999999999 11.05596533203125 0.9607499999999999 Q 11.14971533203125 0.9974999999999998 11.25321533203125 0.9974999999999998 Q 11.40321533203125 0.9974999999999998 11.47971533203125 0.9404999999999999 Q 11.55621533203125 0.8834999999999998 11.55621533203125 0.7919999999999998 Q 11.55621533203125 0.7214999999999998 11.51571533203125 0.6794999999999999 Q 11.47521533203125 0.6375 11.41521533203125 0.6149999999999999 Q 11.35521533203125 0.5924999999999998 11.25321533203125 0.5684999999999999 Q 11.13771533203125 0.5399999999999999 11.06796533203125 0.5129999999999999 Q 10.99821533203125 0.4859999999999999 10.94946533203125 0.42974999999999985 Q 10.90071533203125 0.37349999999999983 10.90071533203125 0.2789999999999999 Q 10.90071533203125 0.2024999999999999 10.94121533203125 0.13874999999999982 Q 10.98171533203125 0.07499999999999984 11.06496533203125 0.03749999999999987 Q 11.14821533203125 -2.220446049250313e-16 11.27271533203125 -2.220446049250313e-16 Q 11.35971533203125 -2.220446049250313e-16 11.44371533203125 0.025499999999999856 Q 11.52771533203125 0.050999999999999934 11.58921533203125 0.09449999999999992 L 11.56071533203125 0.15599999999999992 Q 11.49771533203125 0.11249999999999982 11.42196533203125 0.08999999999999986 Q 11.34621533203125 0.0674999999999999 11.27271533203125 0.0674999999999999 Q 11.12721533203125 0.0674999999999999 11.05221533203125 0.1259999999999999 Q 10.97721533203125 0.1844999999999999 10.97721533203125 0.27749999999999986 Q 10.97721533203125 0.34799999999999986 11.01771533203125 0.3899999999999999 Q 11.05821533203125 0.43199999999999983 11.11821533203125 0.4544999999999999 Q 11.17821533203125 0.47699999999999987 11.28171533203125 0.5024999999999998 Q 11.39721533203125 0.5309999999999999 11.46621533203125 0.5579999999999998 Q 11.53521533203125 0.5849999999999999 11.58396533203125 0.6397499999999998 Q 11.63271533203125 0.6944999999999999 11.63271533203125 0.7874999999999999 Q 11.63271533203125 0.8639999999999999 11.59146533203125 0.9269999999999998 Q 11.55021533203125 0.9899999999999999 11.46471533203125 1.0274999999999999 Q 11.37921533203125 1.065 11.25471533203125 1.065 Q 11.13921533203125 1.065 11.03496533203125 1.0252499999999998" fill="#202020" fill-rule="nonzero"></path></g><g><path d=" M 6.311036132812499 1.4593499999999997 Q 6.3680361328125 1.5073499999999997 6.3680361328125 1.5913499999999998 Q 6.3680361328125 1.67535 6.311036132812499 1.7229749999999997 Q 6.2540361328125 1.7705999999999997 6.1535361328125 1.7705999999999997 L 6.0125361328124995 1.7705999999999997 L 6.0125361328124995 1.9363499999999998 L 5.957036132812499 1.9363499999999998 L 5.957036132812499 1.4113499999999997 L 6.1535361328125 1.4113499999999997 Q 6.2540361328125 1.4113499999999997 6.311036132812499 1.4593499999999997 M 6.2712861328125 1.6877249999999997 Q 6.312536132812499 1.6535999999999997 6.312536132812499 1.5913499999999998 Q 6.312536132812499 1.5275999999999998 6.2712861328125 1.4934749999999997 Q 6.2300361328125 1.4593499999999997 6.1520361328124995 1.4593499999999997 L 6.0125361328124995 1.4593499999999997 L 6.0125361328124995 1.7218499999999999 L 6.1520361328124995 1.7218499999999999 Q 6.2300361328125 1.7218499999999999 6.2712861328125 1.6877249999999997 M 6.58479931640625 1.9059749999999998 Q 6.521424316406249 1.8710999999999998 6.48579931640625 1.8103499999999997 Q 6.450174316406249 1.7495999999999998 6.450174316406249 1.6738499999999998 Q 6.450174316406249 1.5980999999999999 6.48579931640625 1.5373499999999998 Q 6.521424316406249 1.4766 6.58479931640625 1.4417249999999997 Q 6.64817431640625 1.40685 6.72617431640625 1.40685 Q 6.804174316406249 1.40685 6.86679931640625 1.44135 Q 6.92942431640625 1.4758499999999999 6.965424316406249 1.5369749999999998 Q 7.00142431640625 1.5980999999999999 7.00142431640625 1.6738499999999998 Q 7.00142431640625 1.7495999999999998 6.965424316406249 1.8107249999999997 Q 6.92942431640625 1.8718499999999998 6.86679931640625 1.9063499999999998 Q 6.804174316406249 1.9408499999999997 6.72617431640625 1.9408499999999997 Q 6.64817431640625 1.9408499999999997 6.58479931640625 1.9059749999999998 M 6.83867431640625 1.863225 Q 6.88892431640625 1.8350999999999997 6.917424316406249 1.7852249999999998 Q 6.945924316406249 1.7353499999999997 6.945924316406249 1.6738499999999998 Q 6.945924316406249 1.6123499999999997 6.917424316406249 1.5624749999999998 Q 6.88892431640625 1.5125999999999997 6.83867431640625 1.4844749999999998 Q 6.78842431640625 1.4563499999999998 6.72617431640625 1.4563499999999998 Q 6.663924316406249 1.4563499999999998 6.613299316406249 1.4844749999999998 Q 6.56267431640625 1.5125999999999997 6.53379931640625 1.5624749999999998 Q 6.50492431640625 1.6123499999999997 6.50492431640625 1.6738499999999998 Q 6.50492431640625 1.7353499999999997 6.53379931640625 1.7852249999999998 Q 6.56267431640625 1.8350999999999997 6.613299316406249 1.863225 Q 6.663924316406249 1.8913499999999999 6.72617431640625 1.8913499999999999 Q 6.78842431640625 1.8913499999999999 6.83867431640625 1.863225 M 7.832044189453125 1.4113499999999997 L 7.6550441894531245 1.9363499999999998 L 7.596544189453125 1.9363499999999998 L 7.442794189453124 1.4885999999999997 L 7.288294189453125 1.9363499999999998 L 7.230544189453124 1.9363499999999998 L 7.053544189453125 1.4113499999999997 L 7.110544189453124 1.4113499999999997 L 7.262044189453125 1.86285 L 7.418794189453124 1.4113499999999997 L 7.470544189453125 1.4113499999999997 L 7.625044189453124 1.8650999999999998 L 7.778794189453125 1.4113499999999997 L 7.832044189453125 1.4113499999999997 M 8.292925415039063 1.9363499999999998 L 8.172925415039062 1.7675999999999998 Q 8.152675415039063 1.7698499999999997 8.130925415039062 1.7698499999999997 L 7.989925415039062 1.7698499999999997 L 7.989925415039062 1.9363499999999998 L 7.934425415039062 1.9363499999999998 L 7.934425415039062 1.4113499999999997 L 8.130925415039062 1.4113499999999997 Q 8.231425415039062 1.4113499999999997 8.288425415039063 1.4593499999999997 Q 8.345425415039061 1.5073499999999997 8.345425415039061 1.5913499999999998 Q 8.345425415039061 1.6528499999999997 8.314300415039062 1.6952249999999998 Q 8.283175415039063 1.7375999999999998 8.225425415039062 1.7563499999999999 L 8.353675415039062 1.9363499999999998 L 8.292925415039063 1.9363499999999998 M 8.248675415039061 1.6880999999999997 Q 8.289925415039063 1.6535999999999997 8.289925415039063 1.5913499999999998 Q 8.289925415039063 1.5275999999999998 8.248675415039061 1.4934749999999997 Q 8.207425415039062 1.4593499999999997 8.129425415039062 1.4593499999999997 L 7.989925415039062 1.4593499999999997 L 7.989925415039062 1.7226 L 8.129425415039062 1.7226 Q 8.207425415039062 1.7226 8.248675415039061 1.6880999999999997 M 8.849067260742187 1.8883499999999998 L 8.849067260742187 1.9363499999999998 L 8.477817260742187 1.9363499999999998 L 8.477817260742187 1.4113499999999997 L 8.837817260742188 1.4113499999999997 L 8.837817260742188 1.4593499999999997 L 8.533317260742187 1.4593499999999997 L 8.533317260742187 1.6460999999999997 L 8.804817260742187 1.6460999999999997 L 8.804817260742187 1.6933499999999997 L 8.533317260742187 1.6933499999999997 L 8.533317260742187 1.8883499999999998 L 8.849067260742187 1.8883499999999998 M 8.980697021484374 1.4113499999999997 L 9.194447021484375 1.4113499999999997 Q 9.277697021484375 1.4113499999999997 9.341447021484374 1.4447249999999998 Q 9.405197021484375 1.4780999999999997 9.440447021484374 1.5377249999999998 Q 9.475697021484375 1.5973499999999998 9.475697021484375 1.6738499999999998 Q 9.475697021484375 1.7503499999999999 9.440447021484374 1.8099749999999997 Q 9.405197021484375 1.8695999999999997 9.341447021484374 1.9029749999999999 Q 9.277697021484375 1.9363499999999998 9.194447021484375 1.9363499999999998 L 8.980697021484374 1.9363499999999998 L 8.980697021484374 1.4113499999999997 M 9.191447021484375 1.8883499999999998 Q 9.260447021484374 1.8883499999999998 9.312197021484375 1.8609749999999998 Q 9.363947021484375 1.8335999999999997 9.392447021484374 1.7852249999999998 Q 9.420947021484375 1.7368499999999998 9.420947021484375 1.6738499999999998 Q 9.420947021484375 1.6108499999999997 9.392447021484374 1.5624749999999998 Q 9.363947021484375 1.5140999999999998 9.312197021484375 1.4867249999999999 Q 9.260447021484374 1.4593499999999997 9.191447021484375 1.4593499999999997 L 9.036197021484375 1.4593499999999997 L 9.036197021484375 1.8883499999999998 L 9.191447021484375 1.8883499999999998 M 10.209581542968749 1.7102249999999999 Q 10.23770654296875 1.7435999999999998 10.23770654296875 1.7960999999999998 Q 10.23770654296875 1.8635999999999997 10.18783154296875 1.8999749999999997 Q 10.13795654296875 1.9363499999999998 10.04045654296875 1.9363499999999998 L 9.79895654296875 1.9363499999999998 L 9.79895654296875 1.4113499999999997 L 10.02545654296875 1.4113499999999997 Q 10.113206542968749 1.4113499999999997 10.161581542968749 1.4465999999999997 Q 10.209956542968749 1.4818499999999997 10.209956542968749 1.54635 Q 10.209956542968749 1.5898499999999998 10.18858154296875 1.6202249999999998 Q 10.16720654296875 1.6505999999999998 10.12970654296875 1.6655999999999997 Q 10.18145654296875 1.6768499999999997 10.209581542968749 1.7102249999999999 M 9.85445654296875 1.4570999999999998 L 9.85445654296875 1.6475999999999997 L 10.021706542968749 1.6475999999999997 Q 10.08545654296875 1.6475999999999997 10.11995654296875 1.6232249999999997 Q 10.15445654296875 1.5988499999999997 10.15445654296875 1.5523499999999997 Q 10.15445654296875 1.5058499999999997 10.11995654296875 1.4814749999999997 Q 10.08545654296875 1.4570999999999998 10.021706542968749 1.4570999999999998 L 9.85445654296875 1.4570999999999998 M 10.14620654296875 1.8665999999999998 Q 10.18220654296875 1.8425999999999998 10.18220654296875 1.7915999999999999 Q 10.18220654296875 1.6933499999999997 10.03970654296875 1.6933499999999997 L 9.85445654296875 1.6933499999999997 L 9.85445654296875 1.8905999999999998 L 10.03970654296875 1.8905999999999998 Q 10.11020654296875 1.8905999999999998 10.14620654296875 1.8665999999999998 M 10.534341796875 1.7548499999999998 L 10.534341796875 1.9363499999999998 L 10.479591796874999 1.9363499999999998 L 10.479591796874999 1.7548499999999998 L 10.269591796875 1.4113499999999997 L 10.328841796875 1.4113499999999997 L 10.508841796875 1.7060999999999997 L 10.688841796875 1.4113499999999997 L 10.744341796875 1.4113499999999997 L 10.534341796875 1.7548499999999998 M 11.358617065429687 1.7960999999999998 L 11.066117065429687 1.7960999999999998 L 11.003117065429688 1.9363499999999998 L 10.945367065429688 1.9363499999999998 L 11.185367065429688 1.4113499999999997 L 11.240117065429688 1.4113499999999997 L 11.480117065429688 1.9363499999999998 L 11.421617065429688 1.9363499999999998 L 11.358617065429687 1.7960999999999998 M 11.338367065429688 1.7510999999999999 L 11.212367065429687 1.4690999999999999 L 11.086367065429688 1.7510999999999999 L 11.338367065429688 1.7510999999999999 M 11.56822705078125 1.4113499999999997 L 11.62372705078125 1.4113499999999997 L 11.62372705078125 1.9363499999999998 L 11.56822705078125 1.9363499999999998 L 11.56822705078125 1.4113499999999997" fill="#1192dc" fill-rule="nonzero"></path></g></g><defs><clipPath id="SvgjsClipPath53635"><path d=" M 12.109228515625 -1.0626860131542726 h 4.122578414766137 v 4.061722026308545 h -4.122578414766137 Z"></path></clipPath><clipPath id="SvgjsClipPath536300ea2f368-5c7e-4ad3-985e-de0994555d4b"><path d=" M 12.109228515625 -1.0626860131542726 L 16.231806930391137 -1.0626860131542726 L 16.231806930391137 2.9990360131542726 L 12.109228515625 2.9990360131542726 Z"></path></clipPath></defs></svg>